<?xml version="1.0" standalone="no"?>
<!DOCTYPE svg PUBLIC "-//W3C//DTD SVG 1.1//EN" "http://www.w3.org/Graphics/SVG/1.1/DTD/svg11.dtd" >
<svg xmlns="http://www.w3.org/2000/svg">
<metadata>
Created by FontForge 20120731 at Thu Dec 29 14:52:49 2016
 By admin
</metadata>
<defs>
<font id="iconfont" horiz-adv-x="1024" >
  <font-face 
    font-family="iconfont"
    font-weight="500"
    font-stretch="normal"
    units-per-em="1024"
    panose-1="2 0 6 3 0 0 0 0 0 0"
    ascent="896"
    descent="-128"
    x-height="792"
    bbox="0 -224 2377 896.681"
    underline-thickness="0"
    underline-position="0"
    unicode-range="U+0078-EC9D"
  />
<missing-glyph 
 />
    <glyph glyph-name=".notdef" 
 />
    <glyph glyph-name=".notdef" 
 />
    <glyph glyph-name=".null" horiz-adv-x="0" 
 />
    <glyph glyph-name="nonmarkingreturn" horiz-adv-x="341" 
 />
    <glyph glyph-name="x" unicode="x" horiz-adv-x="1001" 
d="M281 543q-27 -1 -53 -1h-83q-18 0 -36.5 -6t-32.5 -18.5t-23 -32t-9 -45.5v-76h912v41q0 16 -0.5 30t-0.5 18q0 13 -5 29t-17 29.5t-31.5 22.5t-49.5 9h-133v-97h-438v97zM955 310v-52q0 -23 0.5 -52t0.5 -58t-10.5 -47.5t-26 -30t-33 -16t-31.5 -4.5q-14 -1 -29.5 -0.5
t-29.5 0.5h-32l-45 128h-439l-44 -128h-29h-34q-20 0 -45 1q-25 0 -41 9.5t-25.5 23t-13.5 29.5t-4 30v167h911zM163 247q-12 0 -21 -8.5t-9 -21.5t9 -21.5t21 -8.5q13 0 22 8.5t9 21.5t-9 21.5t-22 8.5zM316 123q-8 -26 -14 -48q-5 -19 -10.5 -37t-7.5 -25t-3 -15t1 -14.5
t9.5 -10.5t21.5 -4h37h67h81h80h64h36q23 0 34 12t2 38q-5 13 -9.5 30.5t-9.5 34.5q-5 19 -11 39h-368zM336 498v228q0 11 2.5 23t10 21.5t20.5 15.5t34 6h188q31 0 51.5 -14.5t20.5 -52.5v-227h-327z" />
    <glyph glyph-name="Male" unicode="&#xe600;" horiz-adv-x="1000" 
d="M923 800h-357v-107h321v-322h107v358q0 29 -21 50t-50 21zM970 689l-76 75l-258 -258q-106 80 -237 80q-107 0 -197.5 -52.5t-143 -143t-52.5 -197.5t52.5 -197.5t143 -143t197 -52.5t197 52.5t143 143t52.5 197.5q0 132 -80 237zM398.5 -111q-125.5 0 -214.5 89t-89 215
t89 214.5t214.5 88.5t214.5 -88.5t89 -214.5t-89 -215t-214.5 -89z" />
    <glyph glyph-name="QQ" unicode="&#xe607;" 
d="M971 143l-2 18l-3 17l-3 9l-2 9l-3 9l-4 10l-3 10l-4 9l-8 16l-6 14l-7 13l-5 11l-7 11l-5 9l-10 15l-12 19l-3 5l-1 2v1l2 7l3 6l2 11l2 6v6v5v5v6l-1 4l-2 10l-2 9l-3 8l-3 8l-4 7l-3 7l-3 6l-6 9l-2 3v2l-3 18l-1 11l-2 14l-3 15l-4 17l-3 9l-2 8l-3 9l-3 10l-3 9
l-4 10l-8 19l-5 9l-6 10l-5 9l-6 10l-7 10l-7 8l-8 10l-8 8l-8 8l-9 9l-5 3l-5 4l-11 7l-12 8l-12 7l-13 7l-13 6l-13 6l-14 4l-15 4l-13 4l-15 3l-13 4l-15 1l-14 2l-15 2h-15h-14h-14l-14 -1l-14 -2l-14 -2l-13 -2l-14 -3l-13 -3l-13 -4l-12 -4l-12 -4l-12 -6l-12 -5
l-10 -6l-10 -6l-10 -7l-10 -8l-8 -7l-12 -12l-10 -10l-10 -11l-9 -11l-9 -11l-7 -10l-7 -11l-4 -5l-3 -6l-7 -10l-5 -10l-5 -10l-4 -10l-4 -9l-3 -9l-3 -9l-4 -8l-4 -16l-3 -15l-1 -12l-2 -11v-8v-7v-6l-3 -3l-3 -4l-2 -4l-2 -4l-2 -9l-3 -9v-7l-1 -6v-6l-6 -8l-4 -9l-3 -8
l-2 -7l-2 -7l-2 -6v-6v-6v-5l1 -4l2 -7l1 -6l-3 -3l-9 -6l-12 -11l-7 -7l-7 -6l-5 -5l-4 -5l-9 -9l-8 -10l-7 -8l-8 -11l-7 -11l-7 -12l-7 -11l-5 -11l-5 -11l-4 -10l-4 -11l-3 -11l-3 -11l-3 -10l-2 -10l-1 -9l-2 -10l-1 -18v-17v-7l1 -7l2 -13l1 -6l2 -5l2 -6l1 -3l3 -7
l2 -2l2 -3h1h1h1h7l7 2l7 3l6 4l6 4l5 5l6 5l5 6l5 6l4 6l4 4l2 6l5 8l2 4l1 2v3l1 2h1l2 1h1v-1h1h1l3 -12l2 -10l4 -10l4 -9l4 -9l5 -8l4 -9l4 -7l5 -7l3 -6l10 -12l9 -11l8 -8l8 -7l7 -6l11 -10l4 -2l2 -2v-1l-1 -1h-1h-2l-8 -1l-7 -1l-6 -1l-7 -1l-5 -2l-6 -2l-5 -2
l-4 -3l-5 -1l-3 -3l-3 -2l-4 -3l-4 -5l-2 -3l-2 -2l-3 -6l-2 -5l-1 -5l-1 -4v-6v-3l-1 -4v-4l-1 -4v-3l1 -4l1 -4l2 -7l2 -3l2 -3l2 -3l3 -3l3 -3l2 -3l7 -5l8 -4l8 -5l9 -3l9 -4l11 -2l10 -4l11 -2l12 -2l11 -2l12 -1l24 -3h24h23h10h10h11l9 1l9 1l8 1l13 2l9 3l9 2l17 7
l8 3l7 3l12 7l10 6l8 5l6 5l9 -1l7 -1l14 -1h6h6l4 -1l4 -1l7 -3l8 -2l14 -5l15 -5l14 -4l14 -3l15 -4l15 -2l15 -2l14 -2l14 -1l15 -1h13h14h13l13 1l13 1l12 2l11 3l11 2l11 3l5 1l5 2l9 3l8 4l8 4l8 4l6 5l3 3l3 4l4 4l4 6l1 3l1 3l2 3l1 3v4l1 3l-1 5l-1 4l-2 5l-1 4
l-3 5l-3 5l-3 3l-4 4l-9 7l-10 8l-10 5l-10 6l-23 12l-6 3l-2 2l-1 1l12 11l5 6l4 5l8 12l7 11l6 11l6 10l8 20l7 16l4 12l2 4l2 3l2 2h1h1l6 -12l5 -12l4 -7l4 -5l4 -7l5 -7l4 -5l3 -2l2 -3l2 -1l3 -2l4 -2l3 -1h2h2l2 1l4 1l3 2l3 2l3 3l3 4l2 3l3 5l2 3l2 6l2 4l3 11
l2 12l2 14l1 8v6v7v9z" />
    <glyph glyph-name="link" unicode="&#xe6ab;" 
d="M969 395l-94 -94q-44 -44 -104.5 -53.5t-113.5 16.5l218 218q18 19 18 45.5t-18 44.5l-91 91q-19 19 -45 19t-45 -19l-218 -218q-26 53 -16.5 113.5t53.5 104.5l94 94q56 57 136 57t136 -57l90 -90q57 -56 57 -135.5t-57 -136.5zM331.5 120q-18.5 19 -18.5 45.5t19 44.5
l271 272q19 19 45.5 19t45.5 -19t19 -45.5t-19 -45.5l-272 -271q-18 -19 -45 -19t-45.5 19zM151 29l90 -90q19 -19 45.5 -19t45.5 19l218 218q26 -53 16 -114t-53 -104l-87 -95q-56 -56 -135.5 -56t-135.5 56l-99 99q-56 56 -56 135.5t56 135.5l95 87q43 43 104 53t114 -16
l-218 -218q-19 -19 -19 -45.5t19 -45.5z" />
    <glyph glyph-name="android" unicode="&#xe604;" 
d="M770 491q-9 96 -82.5 162t-173.5 66t-173 -66t-83 -162h512zM375 599.5q0 9.5 7 16.5t16.5 7t16 -7t6.5 -16.5t-6.5 -16t-16 -6.5t-16.5 6.5t-7 16zM606 599.5q0 9.5 7 16.5t16.5 7t16 -7t6.5 -16.5t-6.5 -16t-16 -6.5t-16.5 6.5t-7 16zM405 695l-42 74q-4 8 -11.5 3.5
t-3.5 -11.5l42 -74q8 4 15 8zM623 695l42 74q4 8 11.5 3.5t2.5 -11.5l-41 -74q-9 4 -15 8zM238 185q0 -25 -17 -42.5t-40.5 -17.5t-40.5 17.5t-17 42.5v231q0 24 17 41.5t40.5 17.5t40.5 -17.5t17 -41.5v-231zM903 185q0 -25 -17 -42.5t-40.5 -17.5t-40.5 17.5t-17 42.5v231
q0 24 17 41.5t40.5 17.5t40.5 -17.5t17 -41.5v-231zM260 466v-370q0 -25 17.5 -42t42.5 -17h41v-126q0 -25 17 -42.5t40.5 -17.5t40.5 17.5t17 42.5v126h75v-126q0 -25 17 -42.5t40.5 -17.5t40.5 17.5t17 42.5v126h42q24 0 41.5 17t17.5 42v370h-507z" />
    <glyph glyph-name="code" unicode="&#xe65f;" horiz-adv-x="1025" 
d="M240 540q-20 0 -34 -15v0l-189 -189q-17 -14 -17 -36q0 -20 15 -34v0l192 -192v0q14 -14 33 -14q20 0 34 14t14 34q0 19 -14 33v0l-158 159l158 158v0q14 14 14 34t-14 34t-34 14zM1024 300q0 22 -16 36l-190 189v0q-14 15 -34 15t-34 -14t-14 -34t15 -34v0l157 -158
l-158 -159v0q-14 -14 -14 -33q0 -20 14.5 -34t33.5 -14q20 0 34 14v0l192 192v0q14 14 14 34zM640 684q-15 0 -27.5 -9t-17.5 -23l-256 -671q-3 -8 -3 -17q0 -20 14 -34t34 -14q15 0 27.5 9t17.5 23l256 671q3 8 3 17q0 20 -14 34t-34 14z" />
    <glyph glyph-name="ui2-icon-arrow-right" unicode="&#xe601;" 
d="M289 788q-13 12 -30.5 12t-30 -12.5t-12.5 -30.5t13 -30l475 -439l-475 -439q-13 -12 -13 -30t13 -31q12 -12 29.5 -12t30.5 12l506 467q13 14 12 33q1 19 -12 33z" />
    <glyph glyph-name="wechat" unicode="&#xe605;" 
d="M816 228q-18 0 -31 13t-13 32t13 32t31 13t31 -13t13 -32t-13 -32t-31 -13zM591 228q-18 0 -31 13t-13 32t13 32t31 13t31 -13t13 -32t-13 -32t-31 -13zM1018 164q0 109 -84 188t-206 87q-13 1 -23 1q-129 0 -220.5 -81t-91.5 -195q0 -34 9 -66q26 -91 110 -150t193 -59
q74 0 139 28l70 -48q1 -1 2 -1.5t4.5 -1.5t5.5 -0.5t3.5 4.5t1.5 11l-20 76q50 39 78.5 92.5t28.5 114.5zM227 474q-18 0 -31 13t-13 32t13 32t31 13t31 -13t13 -32t-13 -32t-31 -13zM503 564q18 0 31 -13t13 -32t-13 -32t-31 -13t-31 13t-13 32t13 32t31 13zM705 463
q7 0 20 -1q-19 116 -120.5 194t-236.5 78q-99 0 -182 -42.5t-131.5 -116t-48.5 -160.5q0 -72 34.5 -135.5t94.5 -108.5l-26 -102q-1 -2 -1 -4v-7.5t2.5 -7.5t8 -4t15.5 4l100 69q64 -23 134 -23h6h6q-9 34 -9 68q0 81 44.5 150t122 109t167.5 40v0z" />
    <glyph glyph-name="arrow" unicode="&#xe613;" 
d="M744 402l-232 -204l-232 204h464z" />
    <glyph glyph-name="firefox" unicode="&#xe786;" horiz-adv-x="1025" 
d="M1023 562l-12 -76q-17 141 -38 193q-14 36 -26 56t-15.5 22.5t-4.5 1.5q9 -24 13.5 -45t4.5 -29l-1 -9q-1 4 -4 11t-15 26.5t-26.5 36.5t-39 34.5t-52.5 27.5q-50 16 -93.5 22t-60 5t-24.5 -3h-3h1.5h1.5h-1l13 -2.5t32 -7t39 -10.5t37 -14.5t23 -16.5q-51 0 -103 -15
l6 -1t17.5 -4.5t26 -8t32 -13.5t35 -20t35 -27.5t32.5 -36.5t27 -47t18 -58q-3 5 -7 12.5t-16.5 21.5t-23.5 18q12 -41 10.5 -101.5t-14.5 -98.5q0 -2 -2 2q-12 29 -34 40q9 -64 -4 -132.5t-48 -90.5l6 27q13 54 9 53q-2 0 -8 -10q-23 -36 -48.5 -61t-48.5 -40t-50 -20.5
t-47.5 -6.5t-47 6t-42.5 13t-40 20t-34 20.5t-29 19.5q31 -7 76.5 0.5t68.5 24.5h1q5 4 14 10.5t12.5 9t11.5 7.5t10.5 6t9.5 4t9 1.5t8 -0.5q14 -3 20.5 8t-3.5 24q-14 16 -40.5 25.5t-58.5 1.5q-7 -2 -26.5 -10t-33 -12t-36 -2t-44.5 16q-54 31 -55 70q2 9 5 17q1 3 3 5.5
t4.5 5t4.5 4t5.5 3t5 2.5t5.5 2.5l4 1.5q23 -4 45 -15q1 8 0 18q2 4 -1 22q-3 17 -7 31v0v0v0v0v0q2 6 26 24q14 9 38 24q19 12 20 12q0 1 0.5 1.5t1.5 0.5v0v0v1q14 10 16 29v0v2v1v1v2v0v5v3v0h-1v1v0v0v0q-2 6 -35 6v0v0q-14 1 -45 1q-36 -1 -57 45q11 65 69 97q1 1 0 1
l-11 1q-63 -4 -107 -40q-10 -8 -17 -18q-56 14 -105 2q-10 1 -21 3q-49 44 -50 91h-1v0.5v0.5q-2 -2 -6 -5.5t-14 -18.5t-17.5 -33.5t-12 -49.5t-1.5 -67v-5q-24 -32 -26 -46q-25 -51 -41 -142q8 27 25 57q-23 -72 -16 -186q1 20 7 48q7 -96 69 -202q65 -112 162 -173
t214 -70q41 -3 82 0h7q48 4 94 15q253 61 341 322q46 146 38 294v0z" />
    <glyph glyph-name="user" unicode="&#xe7f8;" 
d="M914 9q0 -68 -41.5 -108t-110.5 -40h-500q-69 0 -110.5 40t-41.5 108q0 30 2 59t8 62.5t15 62t24.5 55.5t35.5 46.5t49 31t63 11.5q6 0 24.5 -12.5t42.5 -27.5t62 -27.5t76 -12.5t76 12.5t62 27.5t42.5 27.5t24.5 12.5q34 0 63 -11.5t49 -31t35.5 -46.5t24.5 -55.5
t15 -62t8 -62.5t2 -59zM731 519.5q0 -90.5 -64 -155t-155 -64.5t-155 64.5t-64 155t64 155t155 64.5t155 -64.5t64 -155z" />
    <glyph glyph-name="ellipsis" unicode="&#xe6d5;" 
d="M111 189q46 0 79 32.5t33 78.5t-33 78.5t-79 32.5t-78.5 -32.5t-32.5 -78.5t32.5 -78.5t78.5 -32.5zM512 189q46 0 78.5 32.5t32.5 78.5t-32.5 78.5t-78.5 32.5t-78.5 -32.5t-32.5 -78.5t32.5 -78.5t78.5 -32.5zM913 189q46 0 78.5 32.5t32.5 78.5t-32.5 78.5t-78.5 32.5
t-79 -32.5t-33 -78.5t33 -78.5t79 -32.5z" />
    <glyph glyph-name="ie" unicode="&#xe736;" 
d="M773 221h248q3 24 3 53q0 124 -62 232q65 174 -16 256q-38 39 -135 32t-215 -59q-16 1 -35 1q-161 0 -286 -98.5t-163 -251.5q104 133 235 196q-2 -1 -68 -67q-90 -90 -156 -197.5t-94.5 -199t-28 -164.5t32.5 -106q52 -47 133 -42.5t185 55.5q99 -50 210 -50
q151 0 271 87t167 226h-250q-27 -49 -74.5 -78t-105 -29t-105 29t-74.5 78q-24 45 -24 96v1h407v0zM367 343q4 77 60 130.5t134 53.5t134 -53.5t61 -130.5h-389v0zM944 710q52 -53 4 -183q-80 122 -215 177q152 65 211 6v0zM98 -135q-33 35 -25 100.5t52 152.5
q27 -76 78 -138t119 -103q-77 -35 -134 -38.5t-90 26.5v0z" />
    <glyph glyph-name="round58" unicode="&#xe602;" 
d="M512 812q-138 0 -256 -69t-187 -187t-69 -256t69 -256t187 -187t256 -69t256 69t187 187t69 256t-69 256t-187 187t-256 69zM512 658q65 0 109.5 -44t44.5 -109t-44.5 -109.5t-109.5 -44.5t-109.5 44.5t-44.5 109.5t44.5 109t109.5 44zM512 -69q-94 0 -175 44.5
t-132 119.5q0 36 33 67.5t82 50.5t100.5 30t91.5 11t91.5 -11t100.5 -30t82 -50.5t33 -67.5q-51 -75 -132 -119.5t-175 -44.5z" />
    <glyph glyph-name="arrowleft" unicode="&#xe85f;" 
d="M595 536q-7 7 -17.5 7.5t-18.5 -6.5l-230 -218q-9 -7 -9 -19t8 -19l230 -218q9 -6 18 -6q12 0 19.5 7.5t7 18t-8.5 17.5l-211 200l211 198q7 8 7.5 19t-6.5 19zM512 710q-82 0 -157 -31t-132 -90q-59 -57 -90 -132t-31 -157t31 -157t90 -132q57 -58 132.5 -89.5
t156.5 -31.5q82 0 157 31t132 90q58 57 89.5 132.5t31.5 156.5q0 82 -31 157t-90 132q-57 59 -132 90t-157 31zM765 47q-105 -105 -253 -105t-253 105t-105 253t105 253t253 105t253 -105t105 -253t-105 -253z" />
    <glyph glyph-name="email" unicode="&#xe624;" 
d="M676 302l274 268q12 -13 12 -30v-539q0 -16 -11 -29zM76 571q12 11 28 11h816q16 0 28 -11l-436 -343zM73 -28q-11 13 -11 29v539q0 17 12 30l274 -268l-275 -330v0zM512 143l115 112l322 -285q-12 -11 -29 -11h-816q-17 0 -29 11l322 285z" />
    <glyph glyph-name="git" unicode="&#xead7;" 
d="M340 31q0 57 -94 57q-91 0 -91 -59q0 -58 99 -58q86 0 86 60v0zM306 462q0 35 -17 58.5t-51 23.5q-70 0 -70 -83q0 -77 70 -77q68 0 68 78v0zM460 647v-115q-21 -7 -45 -13q9 -24 9 -48q0 -72 -41.5 -123t-112.5 -65q-23 -4 -34 -15t-11 -33q0 -18 12.5 -29.5t33 -18
t45 -12.5t49 -14.5t45 -21.5t33 -37t12.5 -56q0 -174 -207 -174q-39 0 -74 7t-66.5 23.5t-50 47t-18.5 72.5q0 95 104 129v2q-38 24 -38 72q0 62 36 78v3q-42 13 -69 61.5t-27 94.5q0 80 54.5 132.5t134.5 52.5q55 0 101 -26q56 0 125 26v0zM642 144h-127q2 26 2 77v348
q0 53 -2 73h127q-3 -19 -3 -71v-350q0 -51 3 -77zM985 271v-112q-40 -22 -99 -22q-36 0 -61.5 11t-40 28.5t-22.5 44.5t-10.5 52.5t-2.5 59.5v200h1v2q-4 0 -10.5 1t-10.5 1q-12 0 -34 -4v109h55v43q0 31 -3 51h130q-4 -24 -4 -94h98v-109q-9 0 -25 1t-24 1h-49v-208
q0 -75 50 -75q35 0 62 19v0zM656 812q0 -33 -22.5 -58t-54.5 -25q-33 0 -56 25t-23 58q0 34 22.5 59t56.5 25q33 0 55 -25.5t22 -58.5v0z" />
    <glyph glyph-name="zhifubao" unicode="&#xe63b;" 
d="M588 224q-76 -61 -104 -77q-32 -19 -67 -30q-30 -10 -53 -12q-23 -3 -38 -3q-2 -1 -4 -1h-12q-39 0 -73.5 9.5t-60.5 27.5t-41 45.5t-15 64.5q0 32 16.5 57.5t43 43.5t58.5 27.5t64 7.5q31 -1 60.5 -7t56.5 -15t51 -19t46 -19q8 -4 18 -7q9 -4 19 -7q21 26 35 51.5
t23.5 46.5t14.5 35.5t6 20.5h-311v34h147v80h-204v34h204v65q0 6 7.5 10t16.5 6q11 2 24 2h55v-83h211v-34h-211v-80h167l1 1v-1h-1q-5 -32 -17 -67q-10 -31 -29.5 -70.5t-51.5 -80.5q18 -9 50 -23t121.5 -43t166.5 -41q45 100 45 210q0 104 -40.5 198.5t-109 163t-163 109
t-198.5 40.5t-198.5 -40.5t-163 -109t-109 -163t-40.5 -198.5t40.5 -198.5t109 -163t163 -109t198.5 -40.5q129 0 240 60t181 162q-65 14 -141.5 43.5t-203.5 86.5v0v0zM186 247q0 -25 10.5 -43.5t24 -28t32 -15t28.5 -7t18 -1.5q59 -2 123 36q7 4 15 10l16 12t15.5 12.5
t14.5 13t12 11t9 8l4 3.5q3 2 5 5q-20 11 -40 21q-92 44 -142 49q-40 5 -70.5 -4t-45 -25t-21.5 -30.5t-8 -26.5v0v0z" />
    <glyph glyph-name="gitsquare" unicode="&#xe6f7;" 
d="M406 65q0 -38 -53 -38q-62 0 -62 36t56 36q59 0 59 -34zM385 331q0 -49 -42 -49q-44 0 -44 48q0 52 44 52q20 0 31 -14.5t11 -36.5zM480 374v71q-45 -16 -77 -16q-29 16 -63 16q-49 0 -83 -32.5t-34 -81.5q0 -29 17 -58.5t42 -38.5v-1q-21 -10 -21 -49q0 -30 23 -44v-2
q-65 -21 -65 -79q0 -26 11.5 -45t31 -29t41.5 -14.5t46 -4.5q128 0 128 107q0 38 -27.5 56.5t-71.5 26.5q-16 3 -30 12t-14 22q0 25 28 30q44 9 70 40t26 77q0 13 -6 29q21 5 28 8zM514 134h78q-1 16 -1 47v221q0 27 1 40h-78q1 -13 1 -41v-224q0 -28 -1 -43zM805 143v70
q-18 -12 -39 -12q-31 0 -31 46v129h30q5 0 15 -0.5t15 -0.5v67h-60q0 47 2 58h-80q2 -14 2 -31v-27h-34v-67l21 2q2 0 6.5 -3t6.5 -3v-1h-1v-124q0 -21 1.5 -36.5t6.5 -32.5t14 -28t25 -17.5t38 -6.5q36 0 62 13v5zM601 542q0 20 -13.5 36t-34 16t-34.5 -15.5t-14 -36.5
t14 -36t34 -15t34 15.5t14 35.5zM951 569v-548q0 -68 -48.5 -116.5t-116.5 -48.5h-548q-68 0 -116.5 48.5t-48.5 116.5v548q0 68 48.5 116.5t116.5 48.5h548q68 0 116.5 -48.5t48.5 -116.5z" />
    <glyph glyph-name="p" unicode="&#xe645;" 
d="M894 610q-24 17 -60 36q-13 7 -36 21t-26 16q-14 8 -38.5 22.5t-45 26.5t-38.5 23q-8 5 -28.5 17t-31.5 19q-33 21 -77 21h-6q-19 0 -40.5 -7t-34.5 -15q-11 -7 -31.5 -18.5t-29.5 -17.5q-22 -15 -66 -40t-55 -32q-3 -2 -27 -15.5t-34 -20.5t-30.5 -18.5t-30.5 -18.5
q-26 -18 -47.5 -53.5t-21.5 -72.5v-366q0 -37 21.5 -72.5t47.5 -53.5q17 -11 37.5 -23.5t45.5 -27t39 -22.5q12 -7 55.5 -32t65.5 -40q11 -7 32 -19t29 -17q36 -22 75 -22h13q8 0 17.5 2t17.5 4.5t19 7.5t18 8t18 9.5t15.5 9.5t15 9.5t12.5 8.5q23 14 65 38.5t56 32.5
q13 8 38.5 22.5t46 26.5t36.5 23q26 18 48 53.5t22 71.5v370q0 37 -22 72t-49 53zM737 266.5q-45 -33.5 -138 -33.5h-157v-145q0 -12 5 -19q6 -7 20 -11v-12h-157v12q14 3 20 10t6 20v372q0 13 -6 19q-6 7 -20 11v12h289q86 0 130 -27q25 -15 39 -43.5t14 -64.5
q0 -67 -45 -100.5zM674 367.5q0 -31.5 -23 -43.5q-17 -8 -58 -8h-151v103h151q42 0 58 -8q23 -12 23 -43.5z" />
    <glyph glyph-name="biaoqing" unicode="&#xe67e;" 
d="M523.5 779q-99.5 0 -190 -38.5t-156 -104.5t-104.5 -156.5t-39 -190t39 -190t104.5 -156t156 -104.5t190 -39t190.5 39t156.5 104.5t104 156t38.5 190t-38.5 190t-104 156.5t-156.5 104.5t-190.5 38.5zM523.5 -156q-90.5 0 -173 35.5t-142 95t-94.5 142t-35 173t35 173
t94.5 142t142 95t173 35.5t173 -35.5t142 -95t95 -142t35.5 -173t-35.5 -173t-95 -142t-142 -95t-173 -35.5zM718 500q-51 0 -87 -39t-36 -94q0 -9 6.5 -15.5t15.5 -6.5t15.5 6.5t6.5 15.5q0 37 23 62.5t55.5 25.5t56 -25.5t23.5 -62.5q0 -9 6.5 -15.5t15.5 -6.5t15.5 6.5
t6.5 15.5q0 55 -36 94t-87 39zM333.5 455q32.5 0 55.5 -25.5t23 -62.5q0 -9 6.5 -15.5t16 -6.5t16 6.5t6.5 15.5q0 55 -36.5 94t-87.5 39t-87 -39t-36 -94q0 -9 6.5 -15.5t15.5 -6.5t16 6.5t7 15.5q0 37 23 62.5t55.5 25.5zM762.5 183.5q-8.5 3.5 -17.5 0t-12 -12.5
q-29 -70 -86 -112.5t-123.5 -42.5t-123.5 42.5t-86 112.5q-3 9 -11.5 12.5t-17 0t-12 -12t-0.5 -16.5q34 -84 102.5 -133.5t148.5 -49.5t148 49.5t102 133.5q4 8 0.5 16.5t-12 12z" />
    <glyph glyph-name="biaoqingwunai1" unicode="&#xe606;" 
d="M975.5 317q-6.5 0 -11 4.5t-4.5 11.5q0 91 -35.5 174t-95.5 143t-143 95.5t-174 35.5t-174 -35.5t-143 -95.5t-95.5 -143t-35.5 -174q0 -7 -4.5 -11.5t-11 -4.5t-11 4.5t-4.5 11.5q0 97 38 186t102 153t153 102t186 38t186 -38t153 -102t102 -153t38 -186
q0 -7 -4.5 -11.5t-11 -4.5zM150 320q-12 0 -22 1q-6 0 -10.5 5t-4 11.5t5.5 10.5t11 4q3 1 19 -0.5t45.5 2t59.5 9.5t60 22t47 40q10 12 22.5 3t2.5 -22q-20 -27 -52.5 -45.5t-68.5 -26.5t-62.5 -11t-52.5 -3zM858 320q-25 0 -51.5 3t-63 11t-69 26.5t-52.5 45.5
q-10 13 2.5 22t22.5 -3q17 -23 47 -39.5t60 -22.5t59.5 -9.5t45.5 -2t19 0.5q7 0 11.5 -4t5 -10.5t-4 -11.5t-10.5 -5q-7 -1 -22 -1zM364 447q-30 0 -49 11q-14 8 -5.5 21.5t21.5 5.5q19 -11 50 -6q6 2 11.5 -2t6.5 -10t-2.5 -11.5t-9.5 -6.5q-11 -2 -23 -2zM632 441
q-8 0 -15 1q-6 2 -9.5 7.5t-2 11.5t6.5 9.5t12 2.5q21 -5 50 9q5 3 11.5 1t9.5 -7.5t1 -11.5t-8 -9q-27 -14 -56 -14zM500 107q-34 0 -66 7.5t-52 17t-38 22t-24 18t-9 8.5q-10 11 1.5 21.5t21.5 -0.5l7 -7t21 -15.5t34 -18.5t46 -15t58 -7q31 0 62.5 7t52 15.5t41 19.5
t26.5 15.5l10 7.5q12 9 21.5 -3t-2.5 -22q-4 -3 -11.5 -8.5t-29.5 -17.5t-45 -21t-57 -16.5t-68 -7.5zM825 -25q-7 0 -12 5q-10 11 1 22q70 63 108 150t38 181q0 78 -26 151q-2 6 0.5 11.5t9 8t12 -0.5t7.5 -9q28 -78 28 -161q0 -101 -40.5 -193.5t-115.5 -160.5
q-4 -4 -10 -4zM197 -23q-6 0 -11 4q-73 68 -113 160t-40 192q0 97 38 186t102 153t153 102t186 38q148 0 270 -84q13 -8 4.5 -21t-21.5 -4q-114 78 -253 78q-91 0 -174 -35.5t-143 -95.5t-95.5 -143t-35.5 -174q0 -94 37.5 -180t106.5 -149q11 -11 0 -22q-4 -5 -11 -5z
M454 -212q-4 0 -8 2q-5 3 -7 9t1 12v0v0q-2 2 0 6t-3.5 15t-14 24t-30.5 33t-53 42q-41 28 -82.5 38t-68.5 4.5t-38 -18.5t2 -28q102 -27 119 -78q10 -30 -9 -55q-10 -12 -22 -2q-12 9 -3 21t4 27q-12 35 -101 58q-5 1 -8 4q-16 18 -18 37.5t12 35.5q17 20 51 28t83 -3
t96 -44q39 -26 64.5 -51.5t35.5 -42.5t13.5 -32t2 -22t-4.5 -11q-4 -9 -13 -9zM596 -212q-10 0 -14 9q-3 4 -4.5 10.5t2 22t13.5 32.5t35.5 42t64.5 52q47 33 96 44t83 3t51 -28q14 -16 12 -35.5t-18 -37.5q-3 -3 -8 -4q-90 -23 -101 -58q-3 -7 -1.5 -13.5t3 -9.5t1.5 -4
q10 -12 -2 -21.5t-22 2.5q-19 25 -9 55q17 50 119 78q13 15 2 28t-38 18.5t-68.5 -4.5t-82.5 -38q-23 -16 -41 -32t-28.5 -27.5t-17.5 -22t-10 -17t-3.5 -12t-0.5 -7.5v-3q8 -13 -6 -20q-4 -2 -7 -2zM454 -212q-4 0 -8 2q-5 3 -7 9t1 12v0v0q-2 2 0 6t-3.5 15t-14 24
t-30.5 33t-53 42q-41 28 -82.5 38t-68.5 4.5t-38 -18.5t2 -28q102 -27 119 -78q10 -30 -9 -55q-10 -12 -22 -2q-12 9 -3 21t4 27q-12 35 -101 58q-5 1 -8 4q-16 18 -18 37.5t12 35.5q17 20 51 28t83 -3t96 -44q39 -26 64.5 -51.5t35.5 -42.5t13.5 -32t2 -22t-4.5 -11
q-4 -9 -13 -9z" />
    <glyph glyph-name="biaoqingwunai3" unicode="&#xe608;" 
d="M1008 316q0 101 -39.5 193t-106 158t-158 105.5t-192.5 39.5t-192.5 -39.5t-158 -105.5t-106 -158t-39.5 -193q0 -98 39 -190t109 -162q-16 -28 -16 -59q0 -48 34 -82.5t83 -34.5q31 0 57 15t42 41q73 -23 148 -23q79 0 156 25q16 -26 42.5 -42t58.5 -16q48 0 82 34.5
t34 82.5q0 36 -19 65q68 70 105 159t37 187zM265 -181q-36 0 -61 25t-25 61q0 30 19 54l10 10q2 2 5 4q4 3 10 6q5 3 6 4q4 2 11 4l6 2q10 2 19 2q35 0 60 -25.5t25 -60.5q0 -9 -1 -18q-1 -1 -1.5 -2t-0.5 -2q-2 -8 -4 -13q-11 -23 -32 -37t-46 -14zM656 -125
q-139 -46 -279 -3q0 1 0.5 3t0.5 3q1 4 1 6q2 11 2 21q0 48 -34 82.5t-82 34.5q-12 0 -24 -3q-1 0 -3 -0.5l-2 -0.5q-11 -3 -16 -5l-4 -2t-3 -2q-10 -5 -13 -7t-11 -8q0 -1 -2.5 -2.5t-3.5 -3.5q-66 66 -101 150.5t-35 177.5q0 95 37 181t99.5 148t148.5 99t180 37t180 -37
t148.5 -99t99.5 -148t37 -181q0 -91 -34 -174.5t-98 -148.5q-1 1 -3 2.5t-3 1.5q-6 5 -8 6q-3 2 -10 6q-8 4 -9 4q-4 2 -13 4l-3.5 1t-4.5 1q-12 3 -22 3q-49 0 -83 -34.5t-34 -82.5q0 -10 2 -21q0 -3 1 -5q0 -1 0.5 -2.5zM769 -181q-27 0 -48 14.5t-31 37.5q-1 2 -4 10
q-3 13 -3 24q0 35 25 60.5t61 25.5q9 0 18 -2l1.5 -0.5l1.5 -0.5q8 -2 13 -5q1 0 2.5 -1t2.5 -1q7 -4 11 -7l4 -3q5 -4 9 -8q22 -25 22 -58q0 -36 -25 -61t-60 -25zM442 364q0 -7 4.5 -11.5t11 -4.5t11 4.5t4.5 11.5q0 69 -49 118t-118 49t-118 -49t-49 -118q0 -7 4.5 -11.5
t11 -4.5t11 4.5t4.5 11.5q0 56 40 96t96.5 40t96 -40t39.5 -96zM566.5 348q6.5 0 11 4.5t4.5 11.5q0 56 39.5 96t96 40t96.5 -40t40 -96q0 -7 4.5 -11.5t11 -4.5t11 4.5t4.5 11.5q0 69 -49 118t-118 49t-118 -49t-49 -118q0 -7 4.5 -11.5t11 -4.5zM720 179q-10 12 -22 2
q-3 -2 -10 -7t-27.5 -16t-42.5 -20t-54 -16t-64 -7q-31 0 -60.5 6.5t-48 15.5t-35 20t-21.5 15.5t-8 7.5q-10 11 -21.5 0.5t-0.5 -21.5q3 -4 9 -9.5t24.5 -18t39.5 -22.5t54 -17.5t68 -7.5t70 7.5t59 17t46.5 21.5t30 18t12.5 9q12 10 2 22z" />
    <glyph glyph-name="1256html" unicode="&#xec9d;" 
d="M433 460l-22 21l-116 -116q-5 -4 -5 -10.5t5 -11.5l110 -110l22 22l-99 99zM820 694l-137 123q-16 15 -42 15v0h-422q-16 0 -26 -10q-9 -9 -9 -22v-829q0 -12 9 -23t26 -11h587q9 0 16 4q17 9 17 30v679q1 28 -19 44zM797 673h-140q-1 1 -2 4v121q5 -2 8 -4zM808.5 -31.5
q-0.5 -0.5 -2.5 -0.5h-587q-4 0 -4 3v829v0q1 1 4 1h405v-128l1 -1q2 -11 10 -20t22 -9h152v-672q0 -2 -0.5 -2.5zM612 481l-22 -21l100 -100l-106 -105l22 -22l116 116q5 5 5 11t-5 11zM463 167l-30 8l98 374l30 -7z" />
    <glyph glyph-name="user1" unicode="&#xe609;" 
d="M567 -18q3 1 6 1q-3 0 -6 -1v0zM567 -18zM574 -60h3h-2h-1v0zM574 -60zM511 831q-91 0 -174 -35t-142.5 -95t-95 -142.5t-35.5 -173t35.5 -173t95 -142.5t142.5 -95t174 -35q29 0 60 4h0.5h0.5q9 0 15 6t6 15t-6 15t-15 6h-4q2 0 5 1q-31 -5 -62 -5q-110 0 -203 54
t-147.5 147t-54.5 202.5t54.5 202.5t147.5 147t203 54t203.5 -54t148 -147t54.5 -203q0 -93 -41 -175.5t-111 -139.5h-1v0v0v0v2q-8 70 -50 125.5t-106 81.5q36 24 57.5 62t21.5 83q0 72 -51.5 123.5t-124 51.5t-124 -51.5t-51.5 -123.5q0 -45 21 -83t57 -62
q-72 -30 -115 -96v0q-1 0 -1 -0.5v-0.5v0v0q-4 -6 -4 -13q0 -10 7.5 -17t17.5 -7t17 7v0v0q3 2 4 6l3 3q28 41 72.5 64.5t95.5 23.5q82 0 141.5 -56t63.5 -137q0 -11 -1 -17v0v-2v-1v0v0q-2 -12 2 -17q7 -13 28 -12q6 1 22 13q89 61 140.5 157.5t51.5 207.5
q0 91 -35.5 173.5t-95.5 142.5t-143 95t-174 35v0zM532 297q-12 1 -21 1t-21 -1q-45 8 -75 43t-30 81q0 52 37 88.5t89.5 36.5t89 -36.5t36.5 -88.5q0 -47 -30 -81.5t-75 -42.5v0zM532 297z" />
    <glyph glyph-name="iconfonttag" unicode="&#xe660;" 
d="M960 891h-428q-9 0 -16 -1.5t-14.5 -6.5t-11 -8t-14 -15t-15.5 -18l-318 -317l513 -513l319 318l12 12t11.5 12t8.5 10.5t8 12t4 12t2 15.5v426q0 25 -18 43t-43 18v0zM791 482q-37 -37 -89.5 -37t-90 37t-37.5 90t37.5 90t90 37t90 -37t37.5 -90t-38 -90v0zM40 423
q-39 -38 -39 -92.5t39 -93.5l327 -326q39 -39 93.5 -39t93.5 39l57 56l-514 514zM657 617q-19 -19 -19 -45t18.5 -45t45 -19t45 19t18.5 45t-18.5 44.5t-45 18.5t-44.5 -18v0zM657 617z" />
    <glyph glyph-name="mobile" unicode="&#xe616;" 
d="M736 896h-448q-40 0 -68 -28t-28 -68v-832q0 -40 28 -68t68 -28h448q40 0 68 28t28 68v832q0 40 -28 68t-68 28zM384 848h256v-32h-256v32zM512 -64q-26 0 -45 19t-19 45t19 45t45 19t45 -19t19 -45t-19 -45t-45 -19zM768 128h-512v640h512v-640z" />
    <glyph glyph-name="female" unicode="&#xe64a;" 
d="M885 224q54 54 82.5 124.5t28.5 142t-28.5 142t-82.5 124.5t-124.5 82.5t-142 28.5t-142 -28.5t-125 -82.5t-82.5 -124.5t-28 -142t28 -142t83 -124.5q72 -73 169 -98.5t194.5 0t169.5 98.5v0zM237 186l-114 114q-16 16 -38 16t-38 -16t-16 -38t16 -38l114 -115l-76 -76
q-16 -16 -16 -38t16 -38t38 -16t38 16l76 76l115 -114q15 -16 37.5 -16t38.5 16t16 38t-16 38l-114 114l76 77q15 15 15.5 37.5t-15.5 38.5t-38.5 16t-37.5 -16zM809 300q-79 -79 -190.5 -79t-190.5 79t-79 190.5t79 190.5t190.5 79t190.5 -79t79 -190.5t-79 -190.5z" />
    <glyph glyph-name="arrow1" unicode="&#xe8f4;" 
d="M512 -87q-96 0 -183 37.5t-150 100.5t-100.5 150t-37.5 183t37.5 183t100.5 150t150 100.5t183 37.5t183 -37.5t150 -100.5t100.5 -150t37.5 -183t-37.5 -183t-100.5 -150t-150 -100.5t-183 -37.5zM512 796q-112 0 -207 -55t-150 -150t-55 -207t55 -207t150 -150t207 -55
t207 55t150 150t55 207t-55 207t-150 150t-207 55zM474 155q-9 -8 -21 -8t-20.5 8.5t-8.5 20.5t8 21l188 187l-188 187q-8 9 -8 21t8.5 20.5t20.5 8.5t21 -8l208 -208q9 -9 9 -21t-9 -21z" />
    <glyph glyph-name="ios" unicode="&#xe60a;" 
d="M517 536l-88 28q-6 2 -15.5 5t-37.5 6t-54.5 -0.5t-61.5 -20.5t-63 -47q-130 -144 -49 -372q24 -67 56.5 -123.5t77 -97.5t88.5 -42q29 0 52.5 9.5t53 19.5t71.5 9q36 -4 89 -23q29 -11 51 -13t48.5 8.5t52.5 37.5q35 35 64.5 86t41.5 81t12 33q-5 2 -14 6.5t-31.5 20.5
t-39.5 35.5t-30.5 54t-12.5 74.5t12 73t26 51.5t30 31t25 16.5l11 5q-1 1 -3 4t-8.5 11.5t-14.5 16t-21 18t-26.5 18t-33 14.5t-40 10t-46.5 2t-53 -8zM512 661v7t1 19t4 28t10 34t18 37t29 35.5t41.5 33t58 25.5t75.5 16v-8t-1 -20t-4 -29.5t-10.5 -35t-18.5 -38t-29.5 -36
t-41.5 -32.5t-57 -24t-75 -12v0z" />
    <glyph glyph-name="leiben" unicode="&#xe603;" horiz-adv-x="1179" 
d="M1104 896h-1029q-31 0 -53 -22t-22 -53v-708q0 -30 22 -52t53 -22h55q6 -16 19 -31q4 -3 9 -5q107 -27 122 -70q6 -17 -5 -32q-4 -6 -3.5 -13t6.5 -11.5t13.5 -4t11.5 6.5q23 29 11 65q-20 60 -142 93q-9 10 -9 20v0q0 11 13 20v0q0 1 1 1q3 2 7 5q1 0 2 1l12 4
q14 4 35 4q47 0 108 -19q13 -5 21 -9q2 -2 6 -4q13 -7 26 -16l1 -0.5l1 -0.5q37 -26 63.5 -50.5t36.5 -40t17 -29t5 -18t-1 -6.5v0v0q-3 -7 -1 -14t9 -11q4 -2 8 -2q11 0 16 10q2 5 3.5 11.5t-0.5 21.5t-10 31.5t-29 41.5t-53 51h316q-32 -26 -53 -51t-29.5 -41.5
t-10.5 -31.5t-0.5 -21.5t4.5 -11.5q5 -10 16 -10q4 0 8 2q7 3 9 10t-1 14q-1 1 -1 3t1 9t4 15t11.5 20.5t21 26.5t34.5 32.5t50 38.5q13 9 28 18l5 2q9 5 22 11q61 18 108 18q20 0 35 -4q8 -3 11 -4q0 -1 1 -1h1q5 -3 8 -6h1q12 -9 12 -20v-1q0 -9 -8 -19q-122 -33 -142 -93
q-12 -36 10 -65q5 -6 12.5 -6.5t13 4t6.5 11.5t-4 13q-10 14 -4 32q14 42 122 70q5 2 8 5q14 15 19 31q30 1 51.5 22.5t21.5 51.5v708q0 31 -22 53t-52 22zM190 553h158q22 -74 -8 -159l-2 -5q-9 -25 -13 -41.5t-0.5 -53t20.5 -80.5q25 -64 -1 -103v0q-1 1 -3 1.5l-2 0.5
q-31 12 -61 16q-1 0 -3 0.5l-2 0.5q-14 1 -27 1h-6q-10 0 -20 -1q-1 0 -3 -0.5t-3 -0.5l-1.5 -0.5t-2.5 -0.5q15 68 -9 103q-16 25 -17 85t17 116q13 37 -11 121zM891 214q17 44 20 80.5t-0.5 53t-12.5 41.5l-2 5q-30 85 -9 159h159q-24 -84 -11 -121q18 -56 17 -116.5
t-18 -84.5q-23 -35 -9 -103q-3 1 -3.5 1h-2h-1.5q-11 2 -24 2h-1h-2q-48 0 -99 -20q-26 39 -1 103zM1142 113q0 -15 -10.5 -26.5t-26.5 -11.5q-4 10 -11 19l-1.5 1.5l-1 1l-0.5 0.5l-1 1q-3 4 -8 7q-2 1 -4 3q-3 2 -8 5l-1.5 1l-1.5 1h-0.5h-1.5v1q-20 67 -1 95
q22 34 23.5 104t-19.5 129q-9 29 16 109h7q7 0 12 5.5t5 13t-5 12.5t-12 5h-232q-7 0 -12.5 -5t-5.5 -13q0 -10 10 -15q-21 -83 11 -174l2 -5q8 -22 11 -36t0 -45t-17 -69q-30 -77 1 -131q-18 -9 -36 -21v0h-410q-1 0 -2 0.5t-2 1.5q-14 9 -29 17q-1 1 -2 1.5t-2 1.5
q32 53 2 130q-15 38 -18 69t0 45t11 36l2 5q33 91 12 174q9 5 9 15q0 8 -5 13t-12 5h-232q-7 0 -12.5 -5t-5.5 -12.5t5.5 -13t12.5 -5.5h7q25 -81 15 -109q-20 -58 -18.5 -129t23.5 -104q18 -28 -2 -96h-0.5h-0.5q-1 -1 -2 -1.5t-2 -1.5q-5 -2 -8 -4l-3 -3q-5 -4 -9 -7
q0 -1 -0.5 -1t-0.5 -0.5t-1 -1t-1 -1.5q-2 -2 -6 -8v0q-4 -6 -6 -11h-56q-16 0 -27 11t-11 27v708q0 17 11 28t27 11h1030q16 0 27 -11t11 -28v-708v0zM551 636.5q0 7.5 -5 12.5t-13 5q-60 0 -136 56q-10 7 -13 9q-7 4 -14 2t-10.5 -8.5t-2 -13.5t8.5 -11q2 -1 10 -7
q85 -62 157 -62q8 0 13 5t5 12.5zM807 719q-3 -2 -13 -9q-76 -56 -137 -56q-7 0 -12 -5t-5 -12.5t5 -12.5t12 -5q73 0 158 62q8 6 10 7q7 4 8.5 11t-2 13.5t-11 8.5t-13.5 -2zM717 234l-121 54q-7 3 -15 -1l-106 -53q-7 -4 -9 -11t1 -13.5t10 -9t14 1.5l99 50l112 -51
q3 -1 7 -1q12 0 16 10q4 7 1 14t-9 10z" />
    <glyph glyph-name="lmmy-addr" unicode="&#xe65e;" 
d="M946 640l-138 92q-5 3 -11 3h-635q-10 0 -15.5 -8t-1.5 -17l34 -85l-34 -86q-4 -9 1.5 -17t15.5 -8h635q6 0 11 3l138 92q8 6 8 16t-8 15zM845 367l34 85q4 9 -1.5 17t-15.5 8h-635q-6 0 -11 -3l-138 -92q-8 -5 -8 -15t8 -16l138 -92q5 -3 11 -3h635v0q8 0 13.5 5.5
t5.5 13.5q0 5 -3 10zM438 -20q0 -8 5.5 -13t13.5 -5h110q8 0 13.5 5t5.5 13v239h-148v-239z" />
    <glyph glyph-name="download" unicode="&#xe687;" 
d="M772 66v0q-14 0 -23 9.5t-9 23t9 22.5t23 9h9q52 0 94.5 35.5t65 88t22.5 107.5q0 89 -66.5 153t-157.5 66h-23l-7 23q-52 169 -231 169q-117 0 -189 -77.5t-72 -196.5v0l2 -29l-29 -5q-53 -9 -90 -57t-37 -109q0 -68 45.5 -118t107.5 -50h28q14 0 23 -9t9 -22.5t-9 -23
t-23 -9.5h-28q-88 0 -152 69t-64 163q0 77 43 139t110 83q9 137 99 226.5t226 89.5q106 0 178.5 -51t106.5 -142q110 -12 185.5 -92t75.5 -190q0 -52 -17.5 -103.5t-48.5 -93.5t-80 -69t-106 -29zM379 127q7 7 16.5 6t16.5 -8l68 -76v322q0 14 9.5 23t22.5 9t22.5 -9
t9.5 -23v-322l70 78q7 7 16.5 7t16.5 -7l8 -7q14 -15 0 -29l-119 -130v-0.5v-0.5l-8 -8q-7 -7 -16.5 -7t-16.5 7l-8 8v0.5v0.5l-116 128q-6 7 -6 16.5t6 16.5z" />
    <glyph glyph-name="js" unicode="&#xe612;" 
d="M173 831v-18v-856v-18h18h642h18v18v607v7l-5 5l-250 250l-5 5h-8h-392h-18zM209 795h357v-231v-18h17h232v-571h-606v820zM601 770l189 -189h-189v189zM367 428q33 0 55 -25l-14 -16q-18 19 -40 19q-29 0 -46.5 -22t-17.5 -60t17 -60t45 -22q26 0 46 22l15 -15
q-25 -30 -61 -30q-39 0 -64 28t-25 77q0 47 25.5 75.5t64.5 28.5zM456 267q24 -25 56 -25q19 0 30.5 9t11.5 24q0 9 -5 16t-10.5 10.5t-18.5 8.5l-29 13q-41 17 -41 52q0 23 18.5 38t45.5 15q35 0 59 -25l-13 -16q-20 19 -46 19q-17 0 -27.5 -8t-10.5 -22q0 -9 6 -16
t11.5 -10t16.5 -7l29 -13q41 -18 41 -53q0 -25 -19 -41.5t-50 -16.5q-41 0 -70 30zM614 267q25 -25 56 -25q20 0 31 9t11 24q0 9 -5 16t-10.5 10.5t-18.5 8.5l-29 13q-40 17 -40 52q0 23 18 38t45 15q36 0 59 -25l-13 -16q-20 19 -46 19q-17 0 -27.5 -8t-10.5 -22
q0 -9 6 -16t11.5 -10t16.5 -7l29 -13q41 -18 41 -53q0 -25 -19 -41.5t-50 -16.5q-41 0 -70 30z" />
    <glyph glyph-name="arrow2" unicode="&#xe617;" 
d="M1 -81l183 465l-183 465l1023 -465z" />
    <glyph glyph-name="zhuyi" unicode="&#xe629;" horiz-adv-x="1025" 
d="M505 880q-103 0 -196.5 -40t-161 -108t-107.5 -161.5t-40 -196t40 -196t107.5 -161t161 -107.5t196.5 -40t196.5 40t161 107.5t107.5 161t40 196t-40 196t-107.5 161.5t-161 108t-196.5 40zM561 83q-23 -23 -57 -23q-35 0 -58 23q-24 25 -24 56.5t24.5 56t57 24.5
t57 -24.5t24.5 -56t-24 -56.5zM581 563q-2 -10 -7 -32t-7 -34q-11 -35 -22 -91q-13 -66 -24 -136h-33q-9 57 -25 136q-7 39 -20 92q-3 15 -8.5 38.5t-7.5 29.5q-5 25 -5 45q-3 34 24 57q25 22 59 22q36 0 59 -22q24 -25 24 -57q0 -13 -7 -48z" />
    <glyph glyph-name="pc" unicode="&#xe615;" horiz-adv-x="1332" 
d="M1266 65h-1201q-27 0 -46 19t-19 46v701q0 27 19 46t46 19h1201q27 0 46 -19t19 -46v-701q0 -27 -19 -46t-46 -19zM1251 815h-1171v-674h1171v674v0zM423 -79q24 0 43.5 6.5t30.5 17t19 23t11 25t4.5 23t1.5 16.5l-1 7l110 -1v1h155q2 -1 0 -12t3.5 -29t14 -35
t30.5 -29.5t53 -12.5q17 0 24.5 -12t1 -24.5t-24.5 -12.5h-199h-58h-220q-19 0 -26.5 12.5t1 24.5t26.5 12z" />
    <glyph glyph-name="huojianfeiyue" unicode="&#xe6b1;" 
d="M801 263q-5 6 -23.5 29.5t-24 31.5t-19 30.5t-19 40t-12.5 46.5t-11 63q-6 48 -13 84.5t-20 78.5t-29.5 71t-43 52.5t-59.5 32.5q-8 2 -15 2q-4 0 -15 -2q-34 -7 -60.5 -30t-43 -52t-29 -72.5t-19.5 -79.5t-13 -85q-4 -34 -11 -63t-13 -46.5t-19 -40t-18.5 -30.5t-24 -31
t-23.5 -30q-31 -38 -41 -67t-9 -65v-12v-12q1 -24 10.5 -42t21 -26t26 -13t21 -5.5t9.5 -0.5h225v-52q0 -10 7.5 -17.5t18.5 -7.5t18.5 7.5t7.5 17.5v52h225h1q5 0 11.5 1t21 6t25 13.5t19.5 26t10 40.5v12v12q1 36 -9 65t-41 67zM438 713h148q41 -77 54 -208h-256
q13 130 54 208zM544 764h-64q11 11 32.5 11t31.5 -11zM486 454v-383h-107v383h107zM538 71v383h106v-383h-106zM224 107v24q1 34 6 48.5t33 51.5q53 67 65 88l1 -248h-68l-4 0.5t-9.5 2t-10.5 5t-9 10.5t-4 18zM800 107q0 -11 -4 -18t-9.5 -10.5t-10.5 -5t-9 -2l-4 -0.5h-67
l-1 249q14 -22 66 -89q28 -37 33 -51.5t6 -48.5v-24zM589 586l-21 46h-112l-21 -46h154z" />
    <glyph glyph-name="theend" unicode="&#xe638;" horiz-adv-x="2378" 
d="M1813 679q-15 6 -21 20q-3 7 -5.5 8.5t-10.5 0.5t-11 -4q-4 -3 -10 -9.5t-7 -7.5q-22 -21 -30 -46q0 -2 -2 -9.5t-4.5 -11.5t-7.5 -6q-4 -8 -11 -22.5t-11 -22.5q-5 -10 -6 -10q-13 -18 -21 -49q-1 -3 -9 -22q0 -1 -2 -4t-2 -5q-10 -28 -16 -51q-10 -33 -14 -48
q-2 -10 -18 -78q-1 -1 -4 -17q-36 3 -41 4q-20 1 -29 -2q-24 -8 -45 -20q-35 -19 -47 -35q-12 -6 -23 -30q-15 -33 -15 -52q0 -5 -1 -17q-1 -14 6 -26q4 -6 4 -7q4 -18 26 -25q18 -6 22 -23q2 -8 3 -9q4 -10 8 -13q4 -5 12 -10q2 -2 8.5 -6.5t11 -6.5t8.5 -3q28 -6 51 5
q1 1 2 1t3 1t3 1q0 -3 -1.5 -11.5t-1.5 -13.5q0 -3 -4 -11t-3 -13q1 0 3 1t3 1q20 14 25 18.5t13 3.5l10 -3q1 1 2 2.5t2 2.5q2 3 3 5q8 -9 8.5 -12t-4.5 -11l-0.5 -2t-1.5 -3q-7 -8 1 -18l3 -1q1 0 1 2q1 3 2 5q22 -10 24 -10q12 -7 23 1q1 1 3 2.5t4 3.5q2 -5 5 -9l8 12
q12 40 14 48q1 13 2.5 27.5t3.5 31.5t3 27q3 37 6 55q1 13 4 35t4 29q7 54 7 59l9 45q13 64 16 79l9 30t7 25q2 5 3.5 13t2.5 12q3 14 10.5 44.5t11.5 46.5q0 3 2 12.5t3 14.5q9 25 20 51q1 4 1 14t3 14q1 2 -3 5q-7 6 -10 7zM1572 188q-1 -1 -6 -13q-2 -5 -2 -6
q-31 -44 -43 -59q0 -1 -18 -15q-1 4 -3.5 9.5t-4 9t-1.5 9t3 10.5q8 40 52 73q15 11 31 11q-4 -23 -8 -29zM1017 45q0 1 -7 6q1 3 3.5 8l3.5 7q-13 6 -14 6q-11 -4 -15 6l-9 -3q-19 5 -49 -4q-11 -4 -33.5 -11t-40.5 -12t-34 -9q-38 -7 -84 -14q-18 -3 -26 -15q-4 -6 -8 -8
q-21 -14 -44 -11q2 28 2 34q1 7 1 24v26q1 10 13 10q18 -1 26 0q44 5 76 10q38 5 69 11q12 3 37 8.5t38 7.5q2 1 51 7q14 2 17 8q-1 1 -7 11q3 1 13 4q-1 5 1 7.5t6.5 4.5t6.5 4l-9 11l-6 6l-6 6q9 2 13 2q-15 11 -20 12t-22 -2h-8q-65 -5 -70 -5q-9 -1 -52 -10
q-25 -5 -33 -7t-23.5 -6t-22.5 -6q-28 -7 -57 -14q-1 0 -16 -1v7q1 3 4 10.5t4 11.5q1 5 4 16t5 17q5 17 11 36q10 26 13 32q15 29 17 52q0 7 4 17q2 8 5 9.5t11 0.5h5.5h6.5q56 -6 105 2q16 3 23 13l-4 4l-5 5q10 3 12 13l2 3q9 12 0 24q-2 3 -3 5q-1 8 -3.5 10.5
t-10.5 2.5q-46 -5 -53 -4h-5t-6.5 -1t-5.5 -1q-27 -4 -34 -4q-2 -1 -14 -0.5t-14 0.5q-1 0 -6.5 -0.5t-8.5 0.5q-27 2 -80 9q-3 0 -17 2t-22 2q-8 1 -11.5 -2.5t-1.5 -12.5q0 -1 0.5 -2l0.5 -1q2 -6 1 -8.5t-7 -5.5q-9 -4 -10 -11t7 -13q12 -10 25 -12q11 -1 23.5 -2.5
t27.5 -3.5t23 -3q1 -1 6 -2q0 -1 1 -2v-2q-4 -8 -18 -17q-6 -3 -7 -6q-2 -9 -9 -15q-4 -5 -18 -26q-3 -4 -9.5 -14.5t-10.5 -15.5q-1 -3 -6.5 -7.5t-7 -7.5t-2.5 -10t-1 -10q-1 -3 -4 -8.5t-4 -7.5q-3 -12 -9 -16q-3 -2 -2 -9q0 -11 -4 -15q-11 -12 -8 -33q2 -5 1 -15
q-1 -3 -2 -8.5t-2 -7.5q0 -4 -1 -13.5t-2 -13.5q-4 -29 1 -57q1 -4 5 -7q1 -1 10 -5q7 -2 9 -5t2 -10q0 -19 -1 -24v-6.5t2 -5t3 -4.5l4 -4t4 -3q2 -3 6 -2q1 0 4.5 1t5 1.5t4.5 2t4.5 2.5t3 3t2.5 4t2 5q0 2 3 4q1 1 2 1q1 -2 6.5 -6.5t7.5 -7.5q5 2 13.5 -1t10.5 -3
q8 -1 24.5 -3.5t24.5 -3.5q18 -2 28 -1q55 4 74 9q9 2 27.5 5.5t28.5 6.5t28 9t25 8q29 8 66 36q1 0 3.5 1t3 2.5t0.5 3.5q-2 5 -7 10zM1347 153q-9 35 -37 43q-11 4 -23 17q-15 16 -32 31q-8 7 -24 4q-2 0 -4 -1t-3 -2.5t-1 -2.5t-1 -4l-1 -3q-4 0 -11.5 -1.5t-11 -2
t-9.5 2.5q-29 -10 -32 -11q-14 -2 -17 -4q-1 0 -13 -5q-8 20 -9 21v21q-16 -1 -21 -13q-1 -1 -2.5 -2t-3.5 -2.5t-3 -2.5q-13 -11 -10 -20q-9 -13 -12 -16q-1 -2 -5.5 -10t-7.5 -13q-10 -12 -14 -28q-9 -29 -19 -44q-15 -22 12 -24h2q9 1 13.5 -3t3.5 -16q0 -16 8 -25
q14 -15 24 -13l5 -2q7 -2 14 2t9 11q0 3 2 13.5t3 15.5q3 12 8.5 33.5t9.5 39.5t6 34q2 14 0 24q-1 1 -1 3v3q11 5 22.5 6t30.5 -1.5t22 -3.5q1 0 4 -1q1 0 8 -2t10 -3q7 -2 9 -4q23 -14 15 -40q-3 -12 -1 -19q2 -4 0 -14q-2 -6 -0.5 -8.5t8.5 -2.5q5 -1 17 0q7 0 9 -6
q9 -23 5 -40l5 -7.5t4 -5.5l13 -1q11 -4 17 0.5t5 15.5q0 4 3 11q12 20 9 30q-1 7 -3 23t-4 25zM1096 583q-2 -11 -14 -89l0.5 -1.5t1.5 -2.5l16 3q7 2 9.5 0.5t5.5 -7.5q5 -8 9 -13q5 -7 15 -4q7 2 7 12q1 10 1 12q2 7 5 9q7 4 8 15q1 8 2 20.5t2 23.5t2 20q2 19 14 27
q16 11 31 10q7 0 10 -2.5t5 -9.5q6 -33 0 -58q-1 -2 -6 -34q2 -1 3 -2q2 1 6 2t6 2q11 4 16 -1q7 -7 11 -15q3 -7 10 -6q9 0 12 7t1 25q-4 24 -5 32q-2 25 -10 56q-6 22 -30 28q-5 1 -14.5 4t-15 4.5t-13.5 3t-15 1.5q-1 0 -2 1t-2 1q15 67 18 76q11 44 30 75q-5 2 -11 12
t-14 11q-3 -2 -9.5 -9.5t-10.5 -11.5q-16 -15 -33 -46q-1 -2 -2.5 -7t-2.5 -6q-20 -39 -30 -84q-10 -43 -17 -84zM821 692q1 0 12 -4v-4q-1 -9 -1 -10q3 -5 10 -6q9 -2 18 0q13 3 60 15q65 16 77 20q1 0 9 -1l-8 -17q-12 -42 -18 -68q-3 -12 -8 -36t-6 -26q-9 -41 -17 -75
q-2 -7 6 -11q10 -4 12.5 -8.5t-0.5 -14.5q-1 -5 5 -8q8 -3 13 3q8 8 9 14q2 9 12 62q0 1 1 4t1 4q3 11 4 16q1 7 3 19.5t4 22.5t3 19q1 5 3.5 16t3.5 17q8 45 28 73q11 16 34 17q15 1 24 6q1 0 4 1.5l4 2t2.5 2.5t1.5 5q0 4 -1.5 5.5t-5.5 3t-5 1.5l-2 9q-4 10 -15.5 16
t-22.5 3q-12 -2 -33.5 -8t-26.5 -7q-9 -2 -32.5 -7.5t-35.5 -8.5q-9 -2 -26.5 -7t-25.5 -7q-26 -6 -34 -14q-10 -10 -38 -19h-1h-1q-4 -3 -4 -4q1 -5 4 -6zM1473 433h6q10 1 13 4t2 12q0 10 -8 8q-5 -2 -13 2t-27 14.5t-29 15.5q-6 4 -22.5 13t-25.5 14q-8 4 -8 13
q0 4 0.5 10.5t0.5 9.5q0 8 1 9.5t10 3.5q50 10 61 13q31 8 47 31q5 6 4 14q-1 21 -19 39q-26 24 -59 15q-24 -6 -58 -26q-25 -14 -40 -41q-12 -22 -17 -74q0 -1 2.5 -13t4.5 -19q3 -11 15 -18q19 -12 52 -19q10 -2 22 -7q4 -2 11 -6t8 -4q38 -21 66 -14zM1423 628
q-6 -18 -41 -22q7 9 20 16t21 6zM2377 374q0 6 -1.5 7.5t-8 2t-38.5 0.5h-64q-9 0 -10 -3q-2 -10 -1 -18q0 -5 10 -5h15.5h19h16.5h25h25q8 0 10 2t2 11v1v2zM104 384h-95q-3 0 -3 -1q-5 -3 -5 -5q-1 -2 -1 -7q0 -9 2 -10.5t10 -1.5q6 -1 13.5 -1t17 0.5t14.5 0.5v0h46
q7 0 8.5 2t2.5 8v5q-1 6 -3 7.5t-7 2.5z" />
    <glyph glyph-name="wsmp-icprecord" unicode="&#xe625;" 
d="M535 -122q-1 -1 -2 -1q-10 -5 -23 -5q-4 0 -9 1q-7 1 -15 5v0v0q-80 33 -145.5 81t-109 99.5t-76 112.5t-50.5 116t-29 113.5t-14 101.5t-2.5 83.5t2 55.5t2.5 22q2 17 14 29.5t28 15.5q56 11 120 36t118 56t82.5 49t48.5 33q11 9 21 12q13 4 28 0q13 -3 23 -13
q22 -15 50.5 -33t83 -49t118 -55.5t119.5 -35.5q16 -3 28 -15.5t14 -29.5v0q1 -7 2.5 -22t2 -56t-2.5 -83.5t-14 -101t-29.5 -113.5t-51.5 -116t-76.5 -113t-109.5 -99.5t-146 -80.5zM912 632v0q-2 15 -12.5 26.5t-25.5 14.5q-134 25 -329 163q-9 8 -21 12q-13 3 -25 -1
q-10 -3 -18 -10q-18 -13 -44.5 -30t-75.5 -45.5t-106.5 -51.5t-107.5 -33q-14 -3 -24.5 -16t-12.5 -29q-2 -9 -3 -31.5t1 -78.5t11.5 -113t36 -130t66 -135t109 -121.5t159.5 -97.5h1v0q7 -4 13 -5h8q12 0 20 4q1 0 2 1q71 29 129.5 72.5t97.5 90t68.5 101.5t45.5 104.5
t25.5 102t12.5 91t2.5 75.5t-1.5 50t-2 20zM231 513h32v-290h-32v290zM540 323l37 -9q-27 -94 -126 -95q-124 7 -131 143q5 148 134 155q83 -3 118 -84l-37 -9q-26 62 -84 64q-88 -9 -97 -123q6 -112 96 -120q71 3 90 78zM747 340h-90v-117h-32v290h125q88 -5 97 -86
q-2 -85 -100 -87zM741 484h-84v-115h84q70 2 71 60q-3 53 -71 55z" />
    <glyph glyph-name="date" unicode="&#xe6cd;" 
d="M890 750h-43v13q0 29 -20.5 49.5t-49.5 20.5h-1q-29 0 -49.5 -20.5t-20.5 -49.5v-13h-387v13q0 29 -20.5 49.5t-49.5 20.5h-1q-29 0 -49.5 -20.5t-20.5 -49.5v-13h-43q-29 0 -49.5 -20.5t-20.5 -49.5v-671q0 -29 20.5 -50t49.5 -21h755q29 0 49.5 21t20.5 50v671
q0 29 -20.5 49.5t-49.5 20.5zM734 763q0 18 12 30t30 12h1q17 0 29.5 -12t12.5 -30v-125q0 -17 -12.5 -29.5t-29.5 -12.5h-1q-18 0 -30 12.5t-12 29.5v125zM206 763q0 18 12.5 30t29.5 12h1q18 0 30 -12t12 -30v-125q0 -17 -12 -29.5t-30 -12.5h-1q-17 0 -29.5 12.5
t-12.5 29.5v125zM890 -5h-755q-6 0 -10 4t-4 10v493h783v-493q0 -6 -4 -10t-10 -4zM224 402h129v-64h-129v64zM449 402h128v-64h-128v64zM673 402h126v-64h-126v64zM224 273h129v-63h-129v63zM449 273h128v-63h-128v63zM673 273h126v-63h-126v63zM224 147h129v-66h-129v66z
M449 147h128v-66h-128v66zM673 147h126v-66h-126v66z" />
    <glyph glyph-name="l" unicode="&#xe642;" 
d="M896 261l-485 -63l90 692h-343l-21 -48l-12 48h-26v-1017h833zM309 83l79 408l-31 -354l446 40z" />
    <glyph glyph-name="l1" unicode="&#xe666;" 
d="M85 896h508q-13 -99 -36.5 -285.5t-34.5 -270.5q53 5 113 12.5t139.5 19t113.5 16.5q10 -91 25.5 -264.5t22.5 -247.5h-854v1014q0 6 3 6v0zM170 831v-811h671q-5 46 -30 312q-318 -43 -389 -50q12 104 37 293t34 263h-275q-4 -6 -9 -19t-10 -18q-2 4 -3.5 17t-6.5 18.5
t-17 1.5q-2 0 -2 -6v-1zM378 232q60 4 172.5 14.5t167.5 14.5q-71 -15 -203 -39.5t-176 -33.5q21 111 61 312l1 4q1 -1 1 -4q-16 -154 -24 -268v0z" />
    <glyph glyph-name="o" unicode="&#xe684;" 
d="M756 883q63 -36 109 -92.5t69 -125.5q-29 67 -78 121t-114 88q29 -17 54 -39.5t41.5 -45t29.5 -45.5t20.5 -43t12.5 -35.5t6 -24.5l2 -9q-29 116 -125 186q147 -130 119 -362q-29 332 -256 415q-118 43 -253 14l-13 -3q-79 -30 -143 -85t-105 -128l81 -33
q61 29 118.5 37.5t100 -1t76.5 -29t53 -45.5t23 -53q28 -48 25 -140q-16 -192 -147 -210q-62 -5 -94.5 40t-34.5 141q11 201 146 218q54 5 86 -26q-34 41 -83 56t-95 7.5t-86 -21t-65 -27t-24 -14.5l-107 42l-1 3q-49 -113 -64 -235q-15 -246 84 -370.5t312 -134.5
q210 7 343 122.5t194 347.5q69 423 -217 539v0zM308 464q-2 -7 -5 -19t-8 -45t-5 -63t9.5 -65t30 -58t61 -34.5t98.5 -3.5q-14 -10 -36.5 -15t-49 -1.5t-52.5 14.5t-45 35.5t-28.5 57.5t-2.5 84t33 113v0z" />
    <glyph glyph-name="u" unicode="&#xe68a;" 
d="M997 51l-119 249l44 525l-31 3l-18 -215l-28 219l-245 20l-49 -589q-3 -40 -35 -65q-33 -25 -75 -21q-20 2 -39 11q-18 9 -32 23q-13 15 -20 32q-7 18 -5 37l49 589l-321 27l-49 -589q-7 -80 22 -156q27 -74 81 -133q54 -60 128 -95q76 -37 161 -44q156 -13 278 68
l53 -48l250 152v0zM167 790l-75 -287l31 330l208 -15l-164 -28v0zM483 127l-16 -2q-13 -2 -26 -2q-17 0 -34 2q-4 1 -20 4q-10 3 -20 7q-23 8 -42 24q-20 17 -32 41q-18 38 -14 80q2 15 3 23l6 46q1 9 3.5 24.5t2.5 19.5q2 8 4 21t3 17q1 6 6 33q1 6 5 25l6 22q0 -8 1 -23
v-11.5v-13.5v-33q0 -26 -1 -40q0 -6 -0.5 -21t-0.5 -22q-2 -22 -3 -47q-1 -16 -2 -24q-1 -11 0 -21q2 -21 11 -41q8 -18 23 -32q14 -14 31 -23t34 -15q10 -3 16 -4q2 -1 7.5 -2t7.5 -2q6 -1 14.5 -2.5t10.5 -2.5l22 -4l-6 -1v0z" />
    <glyph glyph-name="o1" unicode="&#xe6f1;" 
d="M723 838q7 6 14 21.5t9 18.5q141 -53 204.5 -192.5t36.5 -328.5q-33 -227 -220 -375q-72 -57 -120 -76q-69 -29 -151 -33t-153.5 12.5t-126.5 48.5q-82 48 -129.5 136.5t-56.5 204.5q-16 225 114 414q132 192 322 206q75 5 134 -10.5t123 -46.5zM741 757q-5 2 0 -3l4 -5
q47 -52 66 -120t6 -138q-6 78 -29.5 140.5t-64.5 109t-104.5 70t-144.5 18.5q-101 -7 -177 -76q-49 -42 -81 -103q13 -4 35.5 -13.5t27.5 -11.5q50 27 107.5 32.5t107.5 -16t70 -68.5q18 -41 22 -91t-5.5 -95.5t-39.5 -77t-76 -31.5q-23 -1 -42.5 10.5t-29.5 31.5
q-20 37 -22 86.5t12.5 92t47.5 70.5t77 24q8 0 20.5 -4.5t16.5 -5.5q-23 24 -58 33t-69 6.5t-68 -14.5q-6 -2 -36 -17.5t-39 -16.5q-5 0 -12.5 3t-16.5 7.5t-13 5.5q-42 16 -43 17q-54 -125 -50 -261q6 -146 81.5 -227.5t214.5 -89.5q150 -9 270 81q91 71 143 207
q25 68 32.5 146t-7.5 156q-16 69 -56 119t-100 74q98 -65 123 -158q-43 98 -123 142q83 -61 101 -161q-21 74 -78 122v0zM493 264q-18 -13 -39 -14q-47 -4 -78.5 18t-42.5 58t-7 78.5t24 78.5h1q-10 -33 -12.5 -67.5t5.5 -65.5t25.5 -53.5t49.5 -31.5t74 -1z" />
    <glyph glyph-name="u1" unicode="&#xe6f8;" 
d="M62 896q157 -14 448 -38t423 -35q-6 -77 -18 -219.5t-16 -205.5q-1 -4 -4 -27t-1 -33q1 -9 5 -19t12.5 -25.5t11.5 -20.5q47 -97 90 -189q-59 -39 -174.5 -109t-166.5 -103q-11 6 -26.5 21t-23.5 20q-65 -31 -148.5 -31.5t-153.5 20.5t-120 54q-81 54 -133 140.5
t-56 193.5q-1 29 5 84t7 65q6 71 18 222.5t18 229.5q1 1 1.5 3t1.5 2zM160 823q-3 0 -2 -5q-3 -48 -27 -320q-1 -17 -4.5 -49.5t-5.5 -58t-2 -47.5q0 -69 38 -140q29 -56 80.5 -97t117.5 -60q72 -21 152.5 -10.5t133.5 48.5q8 -5 21 -18t22 -18q26 18 92.5 57.5t98.5 63.5
q-23 46 -68 144q-3 5 -9 15.5t-9.5 19t-3.5 15.5q-2 13 -0.5 30t4.5 38.5t4 32.5q2 14 24 305q-9 -1 -22 2q-2 -19 -6.5 -77.5t-8.5 -88.5q-19 147 -22 169q-19 2 -189 16q-6 -60 -15.5 -181.5t-14.5 -176.5q-1 -14 -2 -40t-3.5 -45.5t-6.5 -33.5q-13 -37 -51 -46t-72 12
t-36 59q0 11 2.5 31.5t2.5 25.5q6 76 17.5 212t16.5 196q-105 6 -247 20zM347 524q7 -34 0.5 -104.5t-3.5 -96.5q5 -47 40.5 -67.5t95.5 -27.5q-64 -17 -112.5 13t-50.5 88q-1 26 4 59.5t14 74t12 61.5zM196 773q29 -1 84.5 -5t76.5 -5q-31 -8 -125 -22q-44 -166 -59 -220
q3 44 12 131.5t11 120.5z" />
    <glyph glyph-name="gonganbeian" unicode="&#xe61f;" 
d="M956 632l-2 24l-25 1q-4 0 -11 1t-23 7.5t-29 17t-25 32.5t-15 51l-2 17l-17 6q-289 107 -297 107h-8l-5 -3q-3 -1 -282 -104l-17 -6l-2 -17q-3 -29 -14.5 -50.5t-24 -32t-28 -17t-23.5 -8t-13 -1.5l-24 -1l-3 -24q-1 -8 -2 -21.5t-1 -54.5t4 -82t15.5 -98.5t30 -110.5
t52 -112.5t76.5 -108.5t108 -94.5t143 -75.5l5 -2h28l5 2q78 30 143 75.5t108.5 94.5t76.5 108.5t51.5 112.5t30 110.5t15.5 98.5t4 82t-1 54.5t-2 21.5v0zM514 -71h-6q-278 108 -360 409q-35 131 -28 266q44 10 81 43.5t49 94.5q244 89 261 96q24 -9 261 -96
q12 -61 49 -94.5t81 -43.5q1 -19 1 -39.5t-1.5 -54.5t-7 -67.5t-14 -75t-24 -81.5t-35.5 -82t-49.5 -81t-66 -74.5t-85.5 -66.5t-106 -53v0zM514 -71zM511 719l-91 -183l-202 -30l146 -142l-34 -202l181 95l181 -95l-34 202l146 142l-202 30zM511 719z" />
    <glyph glyph-name="close" unicode="&#xe62b;" horiz-adv-x="1042" 
d="M935 68l-321 320l321 321q20 20 20 49t-20 49t-49 20t-49 -20v0l-329 -321l-321 330q-20 20 -49 20t-49 -20v0q-20 -27 -20 -57t20 -50l321 -321l-321 -320q-20 -20 -20 -49t20 -49t49 -20t49 20v0l321 321l320 -321q20 -20 49 -20t49 20v0q26 19 28 48.5t-19 49.5z" />
    <glyph glyph-name="search" unicode="&#xe64b;" 
d="M128.5 769q80.5 80 188.5 108.5t216.5 0t188.5 -108.5q75 -73 105 -171t12 -197t-82 -180l67 -66q19 6 31 -6l156 -154q9 -9 7.5 -22t-11.5 -23l-62 -61q-10 -10 -23.5 -11.5t-21.5 7.5l-157 154q-12 12 -5 30l-69 68q-82 -57 -179.5 -72t-193 15.5t-168.5 101.5
q-80 80 -109 187t0 213.5t109.5 186.5zM215 268q87 -86 210.5 -86t210.5 86t87 207.5t-87 208t-210.5 86.5t-210.5 -86.5t-87 -208t87 -207.5zM605 653q8 -8 8 -18.5t-8 -18t-19 -7.5t-18 7v0q-59 58 -142.5 58t-142.5 -58q-8 -7 -18.5 -7t-18.5 7.5t-8 18t8 18.5
q74 73 179.5 73t179.5 -73z" />
    <glyph glyph-name="star" unicode="&#xe62c;" 
d="M955 494q-8 22 -26.5 37t-43.5 19l-205 30l-89 181q-11 22 -32.5 35t-46.5 13t-46.5 -13t-32.5 -35l-89 -181l-205 -30q-25 -4 -43.5 -19t-26.5 -37q-8 -23 -2.5 -46t22.5 -40l151 -147l-35 -204q-4 -24 6 -46.5t30 -36.5q21 -13 46 -14.5t46 10.5l179 94l179 -94
q19 -11 42 -11q27 0 50 15q20 14 30 36.5t6 46.5l-35 204l151 147q17 17 22.5 40t-2.5 46zM897 445l-160 -157q-10 -9 -8 -22l38 -218q3 -19 -14 -31q-18 -12 -37 -2l-192 101q-5 3 -12 3t-12 -3l-192 -101q-19 -10 -37 2q-17 12 -14 31l38 218q2 13 -8 22l-160 157
q-15 14 -8 32q6 19 27 22l220 32q13 2 19 14l96 193q9 19 31 19t31 -19l96 -193q6 -12 20 -14l219 -32q21 -3 27 -22q7 -18 -8 -32zM229 461l-8 -1q-6 -1 -9 -5.5t-2 -9.5q2 -11 13 -11h2l9 2q5 1 8 5t2.5 9.5t-5 8.5t-10.5 2zM483 622q-12 5 -18 -7l-53 -121l-143 -27
q-6 -1 -9 -5.5t-2 -9.5q2 -10 13 -10h3l149 28q7 2 10 8l57 127q5 12 -7 17z" />
    <glyph glyph-name="pricetag" unicode="&#xe8b5;" 
d="M976 896h-384q-20 0 -44 -10t-38 -24l-476 -476q-14 -14 -14 -34t14 -34l412 -412q14 -14 34 -14t34 14l476 476q14 14 24 38t10 44v384q0 20 -14 34t-34 14zM736 512q-40 0 -68 28t-28 68t28 68t68 28t68 -28t28 -68t-28 -68t-68 -28z" />
    <glyph glyph-name="git1" unicode="&#xe60f;" 
d="M512 881q-104 0 -198 -40.5t-162.5 -109t-108.5 -162.5t-40 -198q0 -166 97 -299t251 -184q17 -3 26 5t9 20q0 4 -0.5 37.5t-0.5 56.5q-42 -10 -72 -5.5t-49.5 13.5t-30.5 22t-15.5 21t-4.5 9q-10 27 -24 45.5t-23 23.5l-9 6q-21 15 -20 22t12 8l11 1q23 -2 42.5 -15.5
t27.5 -24.5t8 -13q16 -27 37.5 -41t43.5 -14t37.5 3.5t30.5 9.5q6 46 32 68q-38 5 -68 12.5t-62 25.5t-53.5 44.5t-35 69.5t-13.5 100q0 79 52 137q-24 59 5 134q2 1 5.5 1.5t16 -0.5t27.5 -5.5t39.5 -16.5t51.5 -31q61 17 128 17t127 -17q44 29 79 42.5t48 11.5l13 -2
q30 -75 5 -134q53 -58 53 -137q0 -57 -14 -100t-35 -69.5t-53 -44t-62.5 -25.5t-68.5 -12q35 -30 35 -95q0 -40 -0.5 -88.5t-0.5 -50.5q0 -12 9 -20t26 -5q154 51 251 184t97 299q0 104 -40.5 198.5t-108.5 162.5t-162.5 108.5t-197.5 40.5v0z" />
    <glyph glyph-name="js1" unicode="&#xe65d;" 
d="M173 831v-18v-856v-18h18h642h18v18v607v7l-5 5l-250 250l-5 5h-8h-392h-18zM209 795h357v-231v-18h17h232v-571h-606v820zM601 770l189 -189h-189v189zM339 248q18 -31 47 -31q43 0 43 58v186h34v-190q0 -37 -18.5 -60.5t-55.5 -23.5q-50 0 -74 43zM534 251
q32 -34 74 -34q26 0 41 12t15 32q0 19 -10.5 28t-34.5 20l-38 16q-55 24 -55 70q0 30 24.5 50.5t60.5 20.5q47 0 79 -33l-18 -22q-27 25 -61 25q-23 0 -36.5 -10.5t-13.5 -28.5q0 -12 7.5 -21.5t15 -13.5t21.5 -10l39 -16q26 -12 40.5 -28t14.5 -44q0 -33 -25 -55t-67 -22
q-55 0 -93 40z" />
    <glyph glyph-name="cry" unicode="&#xe60b;" 
d="M947 269q28 105 4 213q-26 118 -106 206t-192.5 125t-230.5 13q-156 -33 -257 -157.5t-101 -284.5l-1 -0.5l-1 -0.5q12 -89 13 -94q31 -152 148 -248q188 -157 424 -87q126 37 214 145q5 6 12 5q33 -6 59 13t29 52q4 40 -13 92q-2 6 -1 8zM890 140q-15 -1 -26.5 8.5
t-12.5 25.5q-1 9 -1.5 27.5t-1 27t-10.5 108.5v8l2 2l37 -37q47 -55 47 -131q0 -16 -9.5 -27t-24.5 -12zM918 319q-5 6 -6 7q-32 43 -83 71q-3 1 -5 2q-13 6 -22 0q-10 -7 -7 -21q6 -48 7 -53q8 -93 10 -136t21 -63q-52 -69 -134 -110.5t-177.5 -45t-191.5 43.5
q-74 38 -127.5 99.5t-78.5 133.5t-22 153.5t37 156.5q34 74 93 129t129.5 83t152 28t157.5 -32q59 -24 106.5 -63.5t77 -85.5t48.5 -98t20.5 -102t-5.5 -97zM320.5 509q-8.5 9 -23.5 4q-49 -17 -87 -45q-64 -48 -70 -113q-3 -33 18 -58t54 -25q30 -1 52 19.5t24 50.5
q3 32 3 37q7 52 32 107q6 14 -2.5 23zM253 376q-1 -6 -1.5 -18t-1.5 -16q-2 -15 -13 -24.5t-25 -8.5q-15 1 -25 12t-10 27q0 29 20 56q28 37 73 56q-15 -76 -17 -84zM252 535q5 0 16 8q43 32 87 28q36 -3 69 -30q17 -14 28.5 0.5t-4.5 28.5q-46 38 -102 39q-45 0 -81 -23
q-14 -9 -28 -22q-10 -9 -1 -19q7 -9 16 -10zM785 569q-47 39 -102 40q-45 -1 -82 -24q-18 -11 -28 -22q-6 -8 -2 -17.5t15 -10.5q8 0 18 7q53 40 106 26q26 -8 51 -27q16 -14 28 0q12 15 -4 28zM657 330q-43 35 -96 36q-45 0 -95 -25q-76 -40 -150 -130q-5 -6 -4 -13.5
t6.5 -12t13 -4t12.5 6.5q69 85 138 121q42 21 79 21q39 -1 73 -28q32 -27 59 -78q3 -7 10 -9t13.5 1t9 10t-0.5 14q-30 58 -68 90z" />
    <glyph glyph-name="chrome" unicode="&#xe62d;" 
d="M258 449l-146 254q63 80 180.5 136.5t219.5 56.5v0q138 0 255 -68t186 -183h-418q-11 1 -22 1h-1q-90 0 -161 -55.5t-93 -141.5v0zM695 571h294q35 -90 35 -187q0 -103 -40 -197.5t-108 -163t-161.5 -109.5t-196.5 -42l209 363q20 27 33.5 71t13.5 78v0v0q0 46 -23 100.5
t-56 86.5zM326 384q0 77 54.5 131.5t131.5 54.5t131.5 -54.5t54.5 -131.5t-54.5 -131.5t-131.5 -54.5t-131.5 54.5t-54.5 131.5v0zM582 131l-146 -253q-123 18 -222.5 89t-156.5 181t-57 236q0 135 66 251l209 -362q29 -63 98.5 -107t138.5 -44q35 0 70 9v0z" />
    <glyph glyph-name="link1" unicode="&#xe631;" 
d="M512 896q-138 0 -256 -69t-187 -187t-69 -256t69 -256t187 -187t256 -69t256 69t187 187t69 256t-69 256t-187 187t-256 69zM423 152q-12 -7 -26 -11.5t-37 -7.5t-50 10t-52 41q-20 23 -27 47t-3.5 41t10.5 31t13.5 21l6.5 7q85 71 125 102q31 24 49 32t44 8
q12 0 20.5 -1t16 -3t10.5 -3.5t10.5 -5.5t9.5 -5l36 -35q13 -14 13 -23q0 -2 -0.5 -3.5t-2.5 -3t-3.5 -3t-5 -3t-5.5 -2.5t-6.5 -3t-7.5 -4q-18 -9 -27 5q-9 13 -31 31q-12 7 -26 6t-25 -6l-11 -5q-112 -89 -129 -107q-26 -26 -14 -57q8 -21 18 -31.5t31 -13.5
q14 -2 26.5 1.5t17.5 7.5l5 4l76 63q13 -14 36 -18q9 -2 18 -2t13 1l4 1q-102 -89 -120 -103zM770 420l-133 -112q-2 -2 -6 -5t-15.5 -10t-24 -11t-30.5 -3.5t-35.5 8t-31 16t-20 15.5t-10.5 13t-5 10v3q-9 13 8 27q10 10 24.5 10t24.5 -10q9 -9 21.5 -15.5t31 -9.5t32.5 11
q13 12 45.5 37.5t57.5 46t31 28.5q14 10 14.5 28.5t-14.5 42.5q-17 23 -42 26t-52 -17l-67 -58q-13 13 -44 13q-12 2 -43 -3q-3 -1 2 3q1 2 5 5q10 6 37 27t48 39l22 18q4 3 11 7.5t28 13t41 10t46 -8.5t48 -35q58 -77 8 -145z" />
  </font>
</defs>
</svg>
